# AST/ASF file generated using VICON BodyLanguage
# -----------------------------------------------
:version 1.10
:name VICON
:units
  mass 1.0
  length 0.45
  angle deg
:documentation
   .ast/.asf automatically generated from VICON data using
   VICON BodyBuilder and BodyLanguage model FoxedUp or BRILLIANT.MOD
:root
   order TX TY TZ RX RY RZ
   axis XYZ
   position 0 0 0  
   orientation 0 0 0 
:bonedata
  begin
     id 1 
     name lhipjoint
     direction 0.611804 -0.747784 0.257906 
     length 2.29243 
     axis 0 0 0  XYZ
  end
  begin
     id 2 
     name lfemur
     direction 0.34202 -0.939693 0  
     length 7.31159  
     axis 0 0 20  XYZ
    dof rx ry rz
    limits (-160.0 20.0)
           (-70.0 70.0)
           (-60.0 70.0)
  end
  begin
     id 3 
     name ltibia
     direction 0.34202 -0.939693 0   
     length 7.33391   
     axis 0 0 20   XYZ
    dof rx
    limits (-10.0 170.0)
  end
  begin
     id 4 
     name lfoot
     direction 0.122263 -0.335914 0.933924   
     length 1.76083   
     axis -90 7.62852e-016 20   XYZ
    dof rx rz
    limits (-45.0 90.0)
           (-70.0 20.0)
  end
  begin
     id 5 
     name ltoes
     direction 1.53533e-011 -4.2177e-011 1   
     length 0.879206   
     axis -90 7.62852e-016 20   XYZ
    dof rx
    limits (-90.0 20.0)
  end
  begin
     id 6 
     name rhipjoint
     direction -0.646469 -0.721248 0.248754   
     length 2.37677  
     axis 0 0 0  XYZ 
  end
  begin
     id 7 
     name rfemur
     direction -0.34202 -0.939693 0   
     length 7.18623   
     axis 0 0 -20   XYZ
    dof rx ry rz
    limits (-160.0 20.0)
           (-70.0 70.0)
           (-70.0 60.0)
  end
  begin
     id 8 
     name rtibia
     direction -0.34202 -0.939693 0   
     length 7.36567   
     axis 0 0 -20   XYZ
    dof rx
    limits (-10.0 170.0)
 end
 begin
     id 9 
     name rfoot
     direction -0.126681 -0.348054 0.928876   
     length 1.71902  
     axis -90 -7.62852e-016 -20   XYZ
    dof rx rz
    limits (-45.0 90.0)
           (-20.0 70.0)
  end
  begin
     id 10 
     name rtoes
     direction -1.53551e-011 -4.21898e-011 1   
     length 0.857792   
     axis -90 -7.62852e-016 -20   XYZ
    dof rx
    limits (-90.0 20.0)
  end
  begin
     id 11 
     name lowerback
     direction 0.0106509 0.999778 0.0181844   
     length 2.07668   
     axis 0 0 0   XYZ
    dof rx ry rz
    limits (-20.0 45.0)
           (-30.0 30.0)
           (-30.0 30.0)
  end
  begin
     id 12 
     name upperback
     direction -0.00456018 0.999989 -0.000590935   
     length 2.08011   
     axis 0 0 0   XYZ
    dof rx ry rz
    limits (-20.0 45.0)
           (-30.0 30.0)
           (-30.0 30.0)
  end
  begin
     id 13 
     name thorax
     direction -0.00910382 0.999916 -0.00923765   
     length 2.07397   
     axis 0 0 0   XYZ
    dof rx ry rz
    limits (-20.0 45.0)
           (-30.0 30.0)
           (-30.0 30.0)
  end
  begin
     id 14 
     name lowerneck
     direction 0.00171967 0.99778 0.0665733   
     length 1.67556   
     axis 0 0 0   XYZ
    dof rx ry rz
    limits (-20.0 45.0)
           (-30.0 30.0)
           (-30.0 30.0)
  end
  begin
     id 15 
     name upperneck
     direction -0.0143166 0.991302 -0.130828   
     length 1.68462   
     axis 0 0 0   XYZ
    dof rx ry rz
    limits (-20.0 45.0)
           (-30.0 30.0)
           (-30.0 30.0)
  end
  begin
     id 16
     name head
     direction -0.00606378 0.998665 -0.0512995  
     length 1.69269  
     axis 0 0 0   XYZ
    dof rx ry rz
    limits (-20.0 45.0)
           (-30.0 30.0)
           (-30.0 30.0)
  end
  begin
     id 17 
     name lclavicle
     direction 0.9638 0.179341 0.197297  
     length 4.12888  
     axis 0 0 0   XYZ
    dof ry rz
    limits (-20.0 10.0)
           (0.0 20.0)
  end
  begin
     id 18 
     name lhumerus
     direction 1 -4.48972e-011 -2.47351e-027   
     length 5.01834   
     axis -180 -30 -90   XYZ
    dof rx ry rz
    limits (-60.0 90.0)
           (-90.0 90.0)
           (-90.0 90.0)
  end
  begin
     id 19
     name lradius
     direction 1 -4.48965e-011 1.51591e-026   
     length 3.4869   
     axis -180 -30 -90   XYZ
    dof rx
    limits (-10.0 170.0)
  end
  begin
     id 20
     name lwrist
     direction 1 -4.48957e-011 2.70032e-026   
     length 1.74345   
     axis -1.81515e-014 90 90   XYZ
    dof ry
    limits (-180.0 0.0)
 end
  begin
     id 21 
     name lhand
     direction 1 -4.48951e-011 5.40064e-026   
     length 0.76799   
     axis -3.44607e-014 90 90   XYZ
    dof rx rz
    limits (-90.0 90.0)
           (-45.0 45.0)
  end
  begin
     id 22 
     name lfingers
     direction 1 -4.48971e-011 1.08013e-025   
     length 0.619174   
     axis -6.89214e-014 90 90   XYZ
    dof rx
    limits (0.0 90.0)
  end
  begin
     id 23
     name lthumb
     direction 0.707107 -6.34931e-011 0.707107   
     length 0.889013   
     axis -90 45 2.85299e-015   XYZ
    dof rx rz
    limits (-45.0 45.0)
           (-45.0 45.0)
  end
  begin
     id 24 
     name rclavicle
     direction -0.961409 0.252588 0.109054   
     length 4.04305  
     axis 0 0 0   XYZ 
    dof ry rz
    limits (-10.0 20.0)
           (-20.0 0.0)
  end
  begin
     id 25 
     name rhumerus
     direction -1 -4.4897e-011 1.33872e-017  
     length 4.70164   
     axis -180 30 90   XYZ
    dof rx ry rz
    limits (-90.0 60.0)
           (-90.0 90.0)
           (-90.0 90.0)
  end
  begin
     id 26 
     name rradius
     direction -1 -4.48954e-011 1.83844e-026   
     length 3.49911   
     axis -180 30 90   XYZ
    dof rx
    limits (-10.0 170.0)
  end
  begin
     id 27 
     name rwrist
     direction -1 -4.49008e-011 2.70032e-026   
     length 1.74955   
     axis -1.81515e-014 -90 -90   XYZ
    dof ry
    limits (-180.0 0.0)
  end
  begin
     id 28
     name rhand
     direction -1 -4.48916e-011 5.40064e-026   
     length 0.739335   
     axis -3.44607e-014 -90 -90   XYZ
    dof rx rz
    limits (-90.0 90.0)
           (-45.0 45.0)
  end
  begin
     id 29
     name rfingers
     direction -1 -4.48987e-011 1.08013e-025   
     length 0.596071   
     axis -6.89214e-014 -90 -90   XYZ
    dof rx
    limits (0.0 90.0)
  end
  begin
     id 30
     name rthumb
     direction -0.707107 -6.34935e-011 0.707107   
     length 0.855843   
     axis -90 -45 -2.85299e-015   XYZ
    dof rx rz
    limits (-45.0 45.0)
           (-45.0 45.0)
  end
:hierarchy
  begin
    root lhipjoint rhipjoint lowerback
    lhipjoint lfemur
    lfemur ltibia
    ltibia lfoot
    lfoot ltoes
    rhipjoint rfemur
    rfemur rtibia
    rtibia rfoot
    rfoot rtoes
    lowerback upperback
    upperback thorax
    thorax lowerneck lclavicle rclavicle
    lowerneck upperneck
    upperneck head
    lclavicle lhumerus
    lhumerus lradius
    lradius lwrist
    lwrist lhand lthumb
    lhand lfingers
    rclavicle rhumerus
    rhumerus rradius
    rradius rwrist
    rwrist rhand rthumb
    rhand rfingers
  end

#!OML:ASF I:\salsa\salsa 7_09\Patient 1\Session 1\dancermale.ASF
:FULLY-SPECIFIED
:DEGREES
636
root 7.29781 17.5031 1.77446 356.256 257.874 370.749
lowerback -5.73783 0.176265 6.39903
upperback -1.71684 -0.132803 -1.91931
thorax 1.4217 -0.0806697 -5.60858
lowerneck -3.21869 6.3345 5.38312
upperneck 7.75297 8.71521 -7.75743
head 3.41069 4.14746 -2.84524
rclavicle 9.00743e-016 1.70955e-014
rhumerus -62.1253 2.61965 -94.0452
rradius 86.3165
rwrist 7.17254
rhand -36.6611 -2.18935
rfingers 7.12502
rthumb -9.74765 -31.9438
lclavicle 9.00743e-016 1.70955e-014
lhumerus -8.73805 -41.5076 107.265
lradius 109.493
lwrist 54.2927
lhand -37.8812 58.3065
lfingers 7.12502
lthumb -10.9247 88.0022
rfemur -16.3784 3.35891 18.1476
rtibia 20.6364
rfoot -17.0217 -12.9645
rtoes -22.614
lfemur -14.8625 -3.58965 -12.1851
ltibia 22.393
lfoot -18.3781 2.60976
ltoes -17.2019
637
root 7.28889 17.4971 1.65995 354.179 257.257 372.798
lowerback -5.87456 0.11459 6.67842
upperback -1.77078 -0.243437 -1.76729
thorax 1.42502 -0.137919 -5.61639
lowerneck -3.05043 6.45755 5.5025
upperneck 7.55506 8.8652 -7.68955
head 3.33584 4.23562 -2.84344
rclavicle 2.19999e-014 -8.74653e-015
rhumerus -62.7895 3.07047 -93.0729
rradius 86.5511
rwrist 6.73077
rhand -36.2526 -1.98332
rfingers 7.12502
rthumb -9.35352 -31.7558
lclavicle 2.19999e-014 -8.74653e-015
lhumerus -10.5083 -40.1869 108.428
lradius 108.147
lwrist 56.1687
lhand -37.9626 58.6509
lfingers 7.12502
lthumb -11.0032 88.3425
rfemur -15.8184 3.82575 19.2786
rtibia 19.888
rfoot -17.0618 -13.0254
rtoes -23.507
lfemur -15.9592 -3.28069 -11.2808
ltibia 25.2487
lfoot -19.085 3.75409
ltoes -17.3794
638
root 7.26619 17.4753 1.5496 354.168 256.891 372.346
lowerback -5.89701 -0.0865116 6.33326
upperback -1.62594 -0.493753 -1.72132
thorax 1.55556 -0.253208 -5.38971
lowerneck -2.94767 6.59886 5.68388
upperneck 7.15276 9.00727 -7.40184
head 3.55966 4.3485 -3.09477
rclavicle 5.80513e-015 2.14687e-014
rhumerus -63.1148 3.65567 -92.0765
rradius 86.6809
rwrist 6.62055
rhand -35.8336 -1.95521
rfingers 7.12502
rthumb -8.94923 -31.7454
lclavicle 5.80513e-015 2.14687e-014
lhumerus -12.3705 -38.5966 109.491
lradius 106.629
lwrist 57.7826
lhand -37.6536 59.0768
lfingers 7.12502
lthumb -10.7052 88.7841
rfemur -14.7883 4.2532 19.7416
rtibia 19.1816
rfoot -17.1208 -13.1769
rtoes -24.3871
lfemur -16.6536 -3.0217 -11.2523
ltibia 28.2034
lfoot -19.7045 4.91275
ltoes -17.1257
639
root 7.24954 17.4509 1.44859 352.222 256.39 374.213
lowerback -6.07826 -0.248234 6.59093
upperback -1.61737 -0.74213 -1.4931
thorax 1.63037 -0.37409 -5.31658
lowerneck -2.91709 6.77998 5.72687
upperneck 7.06751 9.24264 -7.34944
head 3.54127 4.47002 -3.07201
rclavicle -3.20647e-016 3.18055e-015
rhumerus -63.2572 4.30636 -91.1202
rradius 86.6714
rwrist 7.17795
rhand -35.9578 -2.31695
rfingers 7.12502
rthumb -9.06904 -32.102
lclavicle -3.20647e-016 3.18055e-015
lhumerus -14.3354 -36.6262 110.462
lradius 104.714
lwrist 58.798
lhand -36.7758 59.5489
lfingers 7.12502
lthumb -9.8583 89.2981
rfemur -14.6201 4.60308 20.813
rtibia 19.3259
rfoot -17.3394 -13.072
rtoes -25.1389
lfemur -17.947 -2.477 -10.5946
ltibia 31.5293
lfoot -19.9498 6.00664
ltoes -15.8481
640
root 7.24222 17.4212 1.35143 350.279 255.765 375.737
lowerback -5.6966 -0.427587 6.76926
upperback -1.58716 -0.968302 -1.245
thorax 1.41795 -0.492646 -5.16636
lowerneck -2.78242 6.97884 5.78941
upperneck 6.91903 9.50566 -7.35394
head 3.48835 4.60647 -3.07469
rclavicle -5.33923e-015 -7.95139e-016
rhumerus -63.2029 4.96216 -90.2788
rradius 86.4859
rwrist 7.89075
rhand -36.7093 -2.59349
rfingers 7.12502
rthumb -9.79415 -32.3457
lclavicle -5.33923e-015 -7.95139e-016
lhumerus -16.1684 -34.6003 111.098
lradius 102.439
lwrist 59.3631
lhand -36.4012 59.606
lfingers 7.12502
lthumb -9.49691 89.372
rfemur -14.5247 4.65896 21.8506
rtibia 20.2447
rfoot -17.8696 -12.5588
rtoes -25.4423
lfemur -18.9614 -1.71272 -9.95914
ltibia 35.0069
lfoot -19.7791 6.78513
ltoes -14.0572
641
root 7.23414 17.3869 1.26739 348.432 255.085 377.254
lowerback -5.44844 -0.588209 7.10373
upperback -1.51618 -1.18746 -0.993464
thorax 1.32051 -0.60243 -5.10175
lowerneck -2.47963 7.18478 6.01474
upperneck 6.65742 9.77658 -7.41821
head 3.38035 4.75463 -3.13408
rclavicle 1.61699e-014 -1.19271e-014
rhumerus -62.7561 5.60129 -89.5069
rradius 86.291
rwrist 7.54948
rhand -36.8758 -2.18081
rfingers 7.12502
rthumb -9.9548 -31.9254
lclavicle 1.61699e-014 -1.19271e-014
lhumerus -17.6982 -32.5749 111.242
lradius 99.832
lwrist 60.2697
lhand -36.2976 58.2178
lfingers 7.12502
lthumb -9.39697 87.9883
rfemur -14.8541 4.12853 22.8696
rtibia 21.7271
rfoot -18.6065 -11.4341
rtoes -25.0765
lfemur -20.1887 -0.94525 -9.33129
ltibia 38.7053
lfoot -19.3387 7.20247
ltoes -12.8944
642
root 7.21862 17.3512 1.162 346.313 254.858 379.072
lowerback -5.63532 -0.889042 7.09405
upperback -1.24143 -1.61432 -0.658286
thorax 1.66083 -0.793178 -4.77996
lowerneck -2.2762 7.36755 6.10833
upperneck 6.33773 10.0167 -7.47429
head 3.26032 4.88309 -3.16603
rclavicle -6.54747e-015 -9.54166e-015
rhumerus -61.7174 6.02538 -88.6648
rradius 85.9778
rwrist 6.97458
rhand -36.6733 -1.87395
rfingers 7.12502
rthumb -9.75945 -31.6278
lclavicle -6.54747e-015 -9.54166e-015
lhumerus -18.6844 -30.4155 110.824
lradius 96.9838
lwrist 61.9739
lhand -34.3422 56.0315
lfingers 7.12502
lthumb -7.50985 85.8782
rfemur -14.9497 3.59259 23.9136
rtibia 22.9457
rfoot -19.3197 -10.6795
rtoes -23.5767
lfemur -21.5513 -0.582437 -8.57995
ltibia 42.4706
lfoot -18.712 6.78874
ltoes -10.371
643
root 7.21952 17.3146 1.07083 344.858 254.27 380.088
lowerback -5.45535 -1.05183 7.09248
upperback -0.928155 -1.83007 -0.360325
thorax 1.8666 -0.882684 -4.48155
lowerneck -2.27942 7.5359 6.08711
upperneck 6.14849 10.241 -7.55137
head 3.21744 4.99388 -3.17743
rclavicle 6.66395e-014 -1.23246e-014
rhumerus -60.349 6.14533 -87.8401
rradius 85.5775
rwrist 6.82073
rhand -36.4435 -2.18296
rfingers 7.12502
rthumb -9.5377 -31.9471
lclavicle 6.66395e-014 -1.23246e-014
lhumerus -19.1389 -28.0522 109.961
lradius 93.9325
lwrist 63.6849
lhand -36.0989 56.2342
lfingers 7.12502
lthumb -9.20522 86.0133
rfemur -15.2318 3.11759 24.8228
rtibia 24.5196
rfoot -19.9845 -9.80301
rtoes -22.3678
lfemur -22.9525 -0.13209 -7.94675
ltibia 46.3927
lfoot -17.6447 6.1403
ltoes -5.71654
644
root 7.22538 17.2691 0.990214 343.679 253.758 380.843
lowerback -5.14296 -1.22603 7.10499
upperback -0.690852 -2.05096 -0.0771675
thorax 1.91971 -0.983989 -4.20144
lowerneck -2.22237 7.74726 6.02335
upperneck 6.0249 10.5273 -7.59965
head 3.18582 5.13527 -3.1694
rclavicle -9.96408e-015 5.96354e-015
rhumerus -59.0083 6.04002 -87.146
rradius 85.3297
rwrist 6.67184
rhand -36.1259 -2.6742
rfingers 7.12502
rthumb -9.23133 -32.4521
lclavicle -9.96408e-015 5.96354e-015
lhumerus -19.3238 -25.6589 108.852
lradius 90.7199
lwrist 63.9954
lhand -36.9369 55.7462
lfingers 7.12502
lthumb -10.0138 85.488
rfemur -15.6578 2.44787 25.6163
rtibia 26.2842
rfoot -20.671 -8.95541
rtoes -21.85
lfemur -24.5929 0.183069 -7.46403
ltibia 50.4661
lfoot -16.2425 5.54645
ltoes -0.444438
645
root 7.23154 17.2198 0.911839 342.368 253.212 381.608
lowerback -4.71646 -1.38636 7.14375
upperback -0.394568 -2.2491 0.222651
thorax 1.97439 -1.0729 -3.91415
lowerneck -2.02632 7.96425 5.88336
upperneck 5.71345 10.8195 -7.63554
head 3.05753 5.2839 -3.1504
rclavicle 5.79003e-015 3.97569e-016
rhumerus -57.5785 5.74135 -86.5968
rradius 85.1608
rwrist 6.54886
rhand -36.4967 -3.16102
rfingers 7.12502
rthumb -9.58903 -32.9228
lclavicle 5.79003e-015 3.97569e-016
lhumerus -18.8473 -22.9625 107.167
lradius 86.9353
lwrist 60.776
lhand -35.2793 55.3077
lfingers 7.12502
lthumb -8.41435 85.1201
rfemur -15.6639 1.96666 26.419
rtibia 27.615
rfoot -21.3063 -7.97318
rtoes -20.3341
lfemur -26.1322 0.565604 -6.95238
ltibia 54.4405
lfoot -14.7226 4.86925
ltoes 5.40532
